<?xml version="1.0" encoding="utf-8"?>
<!-- Generator: Adobe Illustrator 16.0.0, SVG Export Plug-In . SVG Version: 6.00 Build 0)  -->
<!DOCTYPE svg PUBLIC "-//W3C//DTD SVG 1.1//EN" "http://www.w3.org/Graphics/SVG/1.1/DTD/svg11.dtd">
<svg version="1.1" id="Layer_1" xmlns="http://www.w3.org/2000/svg" xmlns:xlink="http://www.w3.org/1999/xlink" x="0px" y="0px"
	 width="1400px" height="980px" viewBox="0 0 1400 980" enable-background="new 0 0 1400 980" xml:space="preserve">
<g>
	<g>
		<g>
			<rect fill="#FFFFFF" width="1399.993" height="980"/>
		</g>
	</g>
	<g>
		<g>
			<path d="M558.053,106.545c-2.202-1.388-6.276-2.882-12.04-4.434c-0.283-0.111-0.535-0.188-0.764-0.222
				c-0.161-0.02-0.229-0.05-0.359-0.104c-5.397-1.384-8.944-2.821-10.542-4.277c-2.11-1.961-3.18-4.312-3.18-6.987
				c0-3.761,1.292-6.693,3.838-8.711c2.37-1.934,5.554-2.917,9.46-2.917c4.201,0,7.687,1.158,10.358,3.44
				c2.756,2.366,4.201,5.71,4.3,9.941l0.012,0.478h3.413l-0.023-0.512c-0.26-5.217-2.049-9.307-5.313-12.155
				c-3.157-2.848-7.392-4.292-12.598-4.292c-4.785,0-8.761,1.234-11.811,3.658c-3.341,2.565-5.038,6.288-5.038,11.069
				c0,3.818,1.354,6.972,4.025,9.376c1.743,1.583,5.699,3.23,12.098,5.034c0.642,0.16,0.81,0.241,0.772,0.187l0.207,0.115
				c5.535,1.495,9.154,2.802,10.775,3.879c3.26,2.045,4.843,5.007,4.843,9.055c0,3.906-1.518,6.899-4.648,9.15
				c-2.729,2.045-6.2,3.084-10.313,3.084c-4.686,0-8.432-1.364-11.13-4.063c-2.698-2.698-4.22-6.402-4.514-11.008l-0.027-0.459
				h-3.482l0.035,0.52c0.359,5.657,2.247,10.125,5.596,13.271c3.31,3.26,7.835,4.912,13.447,4.912c5.29,0,9.67-1.308,13.026-3.891
				c3.692-2.913,5.565-7.014,5.565-12.201C564.039,112.783,562.028,109.106,558.053,106.545z"/>
		</g>
		<g>
			<path d="M594.908,75.795c-8.157,0-14.479,2.92-18.798,8.68c-3.834,5.164-5.779,11.991-5.779,20.285
				c0,8.401,1.945,15.228,5.779,20.292c4.27,5.657,10.595,8.524,18.798,8.524s14.547-2.867,18.867-8.524
				c3.837-5.061,5.779-11.887,5.779-20.292c0-8.348-1.942-15.197-5.779-20.365C609.459,78.689,603.11,75.795,594.908,75.795z
				 M594.908,130.404c-7.071,0-12.491-2.58-16.115-7.671c-3.203-4.537-4.832-10.584-4.832-17.973c0-7.388,1.628-13.431,4.832-17.968
				c3.673-5.141,9.093-7.748,16.115-7.748c7.018,0,12.438,2.606,16.115,7.751c3.252,4.537,4.904,10.58,4.904,17.964
				c0,7.435-1.625,13.481-4.835,17.973C607.471,127.824,602.024,130.404,594.908,130.404z"/>
		</g>
		<g>
			<polygon points="628.727,132.441 632.282,132.441 632.282,105.25 655.532,105.25 655.532,101.924 632.282,101.924 
				632.282,80.409 661.514,80.409 661.514,77.007 628.727,77.007 			"/>
		</g>
		<g>
			<polygon points="664.778,80.333 681.742,80.333 681.742,132.441 685.296,132.441 685.296,80.333 702.26,80.333 702.26,77.007 
				664.778,77.007 			"/>
		</g>
		<g>
			<polygon points="761.459,77.007 748.505,125.783 735.482,90.278 735.364,89.957 732.257,89.957 719.188,125.783 706.258,77.37 
				706.162,77.007 702.573,77.007 717.281,132.078 717.377,132.441 720.675,132.441 733.809,95.469 746.831,132.116 
				746.945,132.441 750.244,132.441 765.044,77.007 			"/>
		</g>
		<g>
			<path d="M787.465,77.007h-3.551l-21.354,55.435h3.547l7.121-18.557h24.695l6.926,18.24l0.122,0.317h3.548l-20.931-55.117
				L787.465,77.007z M796.646,110.635h-22.131l11.168-28.82L796.646,110.635z"/>
		</g>
		<g>
			<path d="M850.556,91.734c0-5.707-1.889-9.774-5.611-12.079c-2.897-1.758-7.438-2.649-13.508-2.649h-18.592v55.435h3.555V106.69
				h15.946c3.689,0,6.414,0.44,8.104,1.311c2.148,1.097,3.451,3.184,3.983,6.364c0.046,0.378,0.084,0.994,0.106,1.884
				c0.027,0.883,0.038,2.049,0.038,3.509v12.683h3.938l-0.077-10.867c0-6.701-0.061-7.006-0.08-7.086
				c-0.462-4.935-2.641-8.096-6.479-9.411C847.635,102.788,850.556,98.309,850.556,91.734z M816.399,80.333h15.037
				c1.544,0,2.912,0.038,4.056,0.115c1.143,0.072,2.075,0.16,2.748,0.256c5.894,1.074,8.761,4.759,8.761,11.26
				c0,7.721-4.671,11.475-14.28,11.475h-16.321V80.333z"/>
		</g>
		<g>
			<polygon points="863.505,129.04 863.505,105.25 887.818,105.25 887.818,101.924 863.505,101.924 863.505,80.409 894.183,80.409 
				894.183,77.007 859.954,77.007 859.954,132.441 894.939,132.441 894.939,129.04 			"/>
		</g>
	</g>
	<g>
		<g>
			<rect x="435.252" y="217.383" fill="#5EC9FF" width="548.555" height="353.306"/>
			<path d="M983.807,572.646H435.252c-1.082,0-1.957-0.875-1.957-1.957V217.383c0-1.082,0.875-1.957,1.957-1.957h548.555
				c1.086,0,1.957,0.875,1.957,1.957v353.306C985.764,571.771,984.893,572.646,983.807,572.646z M437.209,568.732H981.85V219.34
				H437.209V568.732z"/>
		</g>
		<g>
			<path d="M983.807,219.34H435.252c-1.082,0-1.957-0.875-1.957-1.957v-44.942c0-1.082,0.875-1.957,1.957-1.957h548.555
				c1.086,0,1.957,0.875,1.957,1.957v44.942C985.764,218.465,984.893,219.34,983.807,219.34z M437.209,215.426H981.85v-41.028
				H437.209V215.426z"/>
		</g>
		<g>
			<rect x="470.378" y="251.47" fill="#FFE68A" width="178.201" height="116.219"/>
			<path d="M648.58,369.646H470.378c-1.085,0-1.957-0.875-1.957-1.957V251.47c0-1.082,0.872-1.957,1.957-1.957H648.58
				c1.078,0,1.957,0.875,1.957,1.957v116.219C650.537,368.771,649.658,369.646,648.58,369.646z M472.335,365.733h174.287V253.427
				H472.335V365.733z"/>
		</g>
		<g>
			<path d="M613.713,290.618H505.241c-1.082,0-1.957-0.875-1.957-1.957s0.875-1.957,1.957-1.957h108.472
				c1.082,0,1.957,0.875,1.957,1.957S614.795,290.618,613.713,290.618z"/>
		</g>
		<g>
			<path d="M613.713,326.264H505.241c-1.082,0-1.957-0.875-1.957-1.957s0.875-1.957,1.957-1.957h108.472
				c1.082,0,1.957,0.875,1.957,1.957S614.795,326.264,613.713,326.264z"/>
		</g>
		<g>
			<rect x="470.378" y="409.016" fill="#FF9074" width="43.383" height="43.382"/>
			<path d="M513.761,454.355h-43.383c-1.085,0-1.957-0.875-1.957-1.957v-43.382c0-1.082,0.872-1.957,1.957-1.957h43.383
				c1.078,0,1.957,0.875,1.957,1.957v43.382C515.718,453.48,514.839,454.355,513.761,454.355z M472.335,450.441h39.469v-39.468
				h-39.469V450.441z"/>
		</g>
		<g>
			<path d="M800.438,432.668H539.072c-1.078,0-1.957-0.875-1.957-1.957c0-1.082,0.879-1.957,1.957-1.957h261.365
				c1.086,0,1.957,0.875,1.957,1.957C802.395,431.793,801.523,432.668,800.438,432.668z"/>
		</g>
		<g>
			<path d="M921.306,432.668h-77.478c-1.082,0-1.957-0.875-1.957-1.957c0-1.082,0.875-1.957,1.957-1.957h77.478
				c1.085,0,1.957,0.875,1.957,1.957C923.263,431.793,922.391,432.668,921.306,432.668z"/>
		</g>
		<g>
			<rect x="470.378" y="482.365" fill="#FF9074" width="43.383" height="43.383"/>
			<path d="M513.761,527.705h-43.383c-1.085,0-1.957-0.876-1.957-1.957v-43.383c0-1.082,0.872-1.957,1.957-1.957h43.383
				c1.078,0,1.957,0.875,1.957,1.957v43.383C515.718,526.829,514.839,527.705,513.761,527.705z M472.335,523.791h39.469v-39.469
				h-39.469V523.791z"/>
		</g>
		<g>
			<path d="M800.438,506.014H539.072c-1.078,0-1.957-0.876-1.957-1.957c0-1.082,0.879-1.957,1.957-1.957h261.365
				c1.086,0,1.957,0.875,1.957,1.957C802.395,505.138,801.523,506.014,800.438,506.014z"/>
		</g>
		<g>
			<path d="M944.553,264.794H683.187c-1.078,0-1.957-0.875-1.957-1.957c0-1.082,0.879-1.957,1.957-1.957h261.366
				c1.081,0,1.957,0.875,1.957,1.957C946.51,263.919,945.634,264.794,944.553,264.794z"/>
		</g>
		<g>
			<path d="M944.553,311.541H683.187c-1.078,0-1.957-0.875-1.957-1.957c0-1.082,0.879-1.957,1.957-1.957h261.366
				c1.081,0,1.957,0.875,1.957,1.957C946.51,310.666,945.634,311.541,944.553,311.541z"/>
		</g>
		<g>
			<path d="M763.768,358.279h-80.581c-1.078,0-1.957-0.875-1.957-1.957s0.879-1.957,1.957-1.957h80.581
				c1.081,0,1.957,0.875,1.957,1.957S764.849,358.279,763.768,358.279z"/>
		</g>
		<g>
			<polygon fill="#A7A9AC" points="295.373,706.024 1123.694,706.024 983.807,570.689 435.252,570.689 			"/>
			<path d="M1123.694,707.981H295.373c-0.799,0-1.518-0.485-1.815-1.224c-0.302-0.737-0.119-1.586,0.455-2.14l139.879-135.335
				c0.367-0.352,0.853-0.551,1.361-0.551h548.555c0.513,0,0.998,0.199,1.361,0.551l139.887,135.335
				c0.573,0.554,0.749,1.402,0.451,2.14C1125.207,707.496,1124.489,707.981,1123.694,707.981z M300.208,704.067h818.648
				L983.02,572.646H436.043L300.208,704.067z"/>
		</g>
		<g>
			<path d="M1103.65,749.308H315.417c-0.749,0-1.437-0.428-1.762-1.104l-20.044-41.326c-0.294-0.604-0.256-1.318,0.104-1.893
				c0.355-0.569,0.982-0.917,1.659-0.917h828.322c0.673,0,1.299,0.348,1.658,0.917c0.355,0.574,0.394,1.288,0.1,1.893
				l-20.044,41.326C1105.08,748.88,1104.399,749.308,1103.65,749.308z M316.64,745.394h785.783l18.145-37.412H298.495
				L316.64,745.394z"/>
		</g>
		<g>
			<path d="M813.869,604.674H444.548c-1.078,0-1.957-0.876-1.957-1.957c0-1.082,0.879-1.957,1.957-1.957h369.321
				c1.078,0,1.957,0.875,1.957,1.957C815.826,603.798,814.947,604.674,813.869,604.674z"/>
		</g>
		<g>
			<path d="M995.435,640.316H411.233c-1.082,0-1.957-0.876-1.957-1.957c0-1.082,0.875-1.957,1.957-1.957h584.202
				c1.077,0,1.957,0.875,1.957,1.957C997.392,639.44,996.512,640.316,995.435,640.316z"/>
		</g>
		<g>
			<path d="M641.348,675.955H376.366c-1.078,0-1.957-0.876-1.957-1.957c0-1.082,0.879-1.957,1.957-1.957h264.982
				c1.085,0,1.957,0.875,1.957,1.957C643.305,675.079,642.434,675.955,641.348,675.955z"/>
		</g>
		<g>
			<path d="M411.233,686.286c-0.409,0-0.822-0.126-1.173-0.39c-0.868-0.649-1.043-1.877-0.394-2.74l67.448-90.022
				c0.65-0.863,1.873-1.043,2.737-0.394c0.868,0.65,1.043,1.877,0.397,2.74L412.8,685.503
				C412.414,686.015,411.829,686.286,411.233,686.286z"/>
		</g>
		<g>
			<path d="M478.677,686.286c-0.317,0-0.639-0.076-0.937-0.24c-0.948-0.517-1.3-1.705-0.78-2.653l35.081-64.256
				c0.52-0.951,1.705-1.307,2.656-0.779c0.948,0.516,1.296,1.704,0.78,2.652l-35.081,64.256
				C480.041,685.919,479.368,686.286,478.677,686.286z"/>
		</g>
		<g>
			<path d="M735.696,675.955c-1.047,0-1.919-0.83-1.957-1.885l-2.936-79.69c-0.038-1.081,0.803-1.987,1.885-2.029
				c1.097,0.072,1.991,0.807,2.029,1.884l2.936,79.69c0.038,1.082-0.803,1.988-1.884,2.03
				C735.742,675.955,735.72,675.955,735.696,675.955z"/>
		</g>
		<g>
			<path d="M796.439,675.955c-1.005,0-1.857-0.772-1.945-1.793l-3.994-47.075c-0.092-1.074,0.707-2.021,1.781-2.113
				c1.124-0.062,2.025,0.711,2.117,1.785l3.995,47.074c0.091,1.074-0.708,2.022-1.785,2.114
				C796.555,675.951,796.497,675.955,796.439,675.955z"/>
		</g>
		<g>
			<path d="M493.641,442.721c-0.5,0-1.001-0.191-1.384-0.573l-12.476-12.476c-0.765-0.765-0.765-2.003,0-2.767
				c0.765-0.765,2.003-0.765,2.767,0l11.092,11.092l28.46-28.46c0.765-0.764,2.003-0.764,2.768,0c0.764,0.765,0.764,2.003,0,2.768
				l-29.844,29.844C494.642,442.529,494.142,442.721,493.641,442.721z"/>
		</g>
		<g>
			<path d="M493.641,516.418c-0.5,0-1.001-0.191-1.384-0.574l-12.476-12.476c-0.765-0.765-0.765-2.003,0-2.768
				c0.765-0.764,2.003-0.764,2.767,0l11.092,11.093l28.46-28.46c0.765-0.765,2.003-0.765,2.768,0c0.764,0.764,0.764,2.002,0,2.767
				l-29.844,29.844C494.642,516.227,494.142,516.418,493.641,516.418z"/>
		</g>
	</g>
	<g>
		<g>
			<path fill="#FFFFFF" d="M245.056,169.406c-25.525,25.525-25.815,66.694-0.902,92.59c0.306,0.321,0.596,0.635,0.902,0.94
				c1.292,1.295,2.63,2.522,3.999,3.681c8.187,6.957,17.659,11.585,27.574,13.905c0.474,0.115,0.933,0.229,1.403,0.329l19.115,5.122
				l62.181,16.661l25.471,6.827l0.421,0.111l-6.934-25.896l-14.991-55.938l-6.796-25.368c-2.568-12.079-8.523-23.583-17.911-32.967
				C312.764,143.579,270.887,143.576,245.056,169.406z"/>
			<path d="M385.219,311.529c-0.161,0-0.329-0.019-0.493-0.065l-25.903-6.938l-81.3-21.783c-0.31-0.065-0.711-0.16-1.124-0.264
				c-10.641-2.492-20.457-7.442-28.613-14.372c-1.407-1.192-2.787-2.454-4.117-3.788l-0.715-0.745
				c-25.731-26.752-25.318-69.515,0.719-95.553c12.858-12.862,29.958-19.944,48.153-19.944c18.186,0,35.287,7.083,48.145,19.94
				c9.326,9.327,15.702,21.064,18.442,33.946l28.697,107.104c0.18,0.672-0.011,1.391-0.5,1.884
				C386.235,311.327,385.734,311.529,385.219,311.529z M291.826,151.992c-17.147,0-33.265,6.673-45.386,18.798
				c-24.539,24.539-24.929,64.845-0.872,89.85l0.872,0.914c1.254,1.257,2.553,2.45,3.876,3.57
				c7.687,6.532,16.937,11.196,26.756,13.493l1.36,0.321l104.023,27.872L354.61,202.874c-2.607-12.235-8.615-23.297-17.407-32.088
				C325.087,158.666,308.968,151.992,291.826,151.992z"/>
		</g>
		<g>
			<path fill="#FFFFFF" d="M323.092,185.689c17.047,17.047,17.047,44.698,0,61.749c-17.055,17.055-44.705,17.055-61.752,0
				c-17.055-17.051-17.055-44.701,0-61.752C278.387,168.634,306.037,168.634,323.092,185.689z"/>
			<path d="M292.215,262.188c-12.189,0-23.645-4.747-32.26-13.366c-8.623-8.615-13.367-20.075-13.367-32.26
				c0-12.186,4.744-23.645,13.367-32.26c8.615-8.616,20.071-13.363,32.256-13.363c12.189,0,23.648,4.747,32.264,13.367
				c17.789,17.785,17.789,46.727,0,64.516C315.86,257.44,304.401,262.188,292.215,262.188z M292.211,174.853
				c-11.142,0-21.615,4.338-29.489,12.216c-7.881,7.878-12.22,18.351-12.22,29.493c0,11.142,4.338,21.615,12.22,29.493
				c7.874,7.877,18.347,12.22,29.493,12.22c11.138,0,21.611-4.342,29.493-12.22c16.26-16.264,16.26-42.722,0-58.981
				C313.83,179.195,303.354,174.853,292.211,174.853z"/>
		</g>
	</g>
	<g>
		<g>
			<path d="M1208.021,492.991h-128.581c-19.424,0-35.226-15.802-35.226-35.226c0-19.207,15.449-34.875,34.576-35.218
				c-0.871-3.949-1.308-7.885-1.308-11.75c0-30.574,24.876-55.449,55.446-55.449c26.239,0,49.116,18.92,54.283,44.434
				c6.483-3.042,13.619-4.64,20.809-4.64c26.978,0,48.925,21.947,48.925,48.925S1234.998,492.991,1208.021,492.991z
				 M1079.439,426.453c-17.269,0-31.312,14.047-31.312,31.312s14.043,31.312,31.312,31.312h128.581
				c24.821,0,45.011-20.193,45.011-45.011s-20.189-45.011-45.011-45.011c-7.438,0-14.822,1.861-21.344,5.382
				c-0.558,0.294-1.234,0.313-1.804,0.027c-0.569-0.283-0.963-0.826-1.063-1.457c-3.792-24.94-25.663-43.746-50.882-43.746
				c-28.415,0-51.532,23.117-51.532,51.535c0,4.354,0.604,8.822,1.793,13.286c0.164,0.604,0.026,1.25-0.371,1.735
				c-0.39,0.486-1.031,0.826-1.612,0.723l-0.65-0.038C1080.182,426.48,1079.814,426.453,1079.439,426.453z"/>
		</g>
		<g>
			<path d="M1201.652,563.316h-113.506c-1.085,0-1.957-0.875-1.957-1.957v-23.483c0-1.082,0.872-1.957,1.957-1.957h113.506
				c1.078,0,1.957,0.875,1.957,1.957v23.483C1203.609,562.441,1202.73,563.316,1201.652,563.316z M1090.104,559.402h109.592v-19.569
				h-109.592V559.402z"/>
		</g>
		<g>
			<path d="M1144.899,640.943c-28.162,0-51.068-22.907-51.068-51.065v-28.519c0-1.081,0.875-1.957,1.956-1.957h98.221
				c1.086,0,1.957,0.876,1.957,1.957v28.519C1195.965,618.036,1173.059,640.943,1144.899,640.943z M1097.744,563.316v26.562
				c0,25.999,21.152,47.151,47.155,47.151c25.999,0,47.151-21.152,47.151-47.151v-26.562H1097.744z"/>
		</g>
		<g>
			<path d="M1103.803,539.833c-1.085,0-1.957-0.876-1.957-1.957v-30.009c0-1.082,0.872-1.957,1.957-1.957
				c1.078,0,1.957,0.875,1.957,1.957v30.009C1105.76,538.957,1104.881,539.833,1103.803,539.833z"/>
		</g>
		<g>
			<path d="M1131.201,539.833c-1.086,0-1.957-0.876-1.957-1.957v-30.009c0-1.082,0.871-1.957,1.957-1.957
				c1.077,0,1.957,0.875,1.957,1.957v30.009C1133.158,538.957,1132.278,539.833,1131.201,539.833z"/>
		</g>
		<g>
			<path d="M1158.599,539.833c-1.085,0-1.957-0.876-1.957-1.957v-30.009c0-1.082,0.872-1.957,1.957-1.957
				c1.078,0,1.957,0.875,1.957,1.957v30.009C1160.556,538.957,1159.677,539.833,1158.599,539.833z"/>
		</g>
		<g>
			<path d="M1185.997,539.833c-1.086,0-1.957-0.876-1.957-1.957v-30.009c0-1.082,0.871-1.957,1.957-1.957
				c1.077,0,1.957,0.875,1.957,1.957v30.009C1187.954,538.957,1187.074,539.833,1185.997,539.833z"/>
		</g>
		<g>
			<path d="M1199.248,696.147c-31.048,0-56.305-25.261-56.305-56.31c0-1.081,0.871-1.957,1.956-1.957
				c1.078,0,1.957,0.876,1.957,1.957c0,28.893,23.5,52.396,52.392,52.396c28.893,0,52.396-23.503,52.396-52.396v-45.867
				c0-1.081,0.875-1.957,1.956-1.957c1.082,0,1.957,0.876,1.957,1.957v45.867C1255.558,670.887,1230.297,696.147,1199.248,696.147z"
				/>
		</g>
	</g>
	<g>
		<g>
			<path d="M1217.194,318.998h-152.733c-0.578,0-1.12-0.252-1.495-0.692c-0.37-0.439-0.531-1.021-0.436-1.59
				c6.437-38.349,39.369-66.182,78.299-66.182s71.854,27.833,78.295,66.182c0.096,0.57-0.064,1.151-0.436,1.59
				S1217.768,318.998,1217.194,318.998z M1066.812,315.084h148.036c-7.021-35.272-37.787-60.636-74.019-60.636
				C1104.594,254.448,1073.829,279.812,1066.812,315.084z"/>
		</g>
		<g>
			<path d="M1140.829,254.448c-1.082,0-1.957-0.875-1.957-1.957v-59.86c0-1.082,0.875-1.957,1.957-1.957s1.957,0.875,1.957,1.957
				v59.86C1142.786,253.572,1141.911,254.448,1140.829,254.448z"/>
		</g>
		<g>
			<path d="M1140.829,194.587c-15.109,0-27.401-12.292-27.401-27.406c0-15.109,12.292-27.402,27.401-27.402
				s27.401,12.292,27.401,27.402C1168.23,182.295,1155.938,194.587,1140.829,194.587z M1140.829,143.694
				c-12.954,0-23.487,10.538-23.487,23.488c0,12.954,10.533,23.492,23.487,23.492c12.95,0,23.487-10.538,23.487-23.492
				C1164.316,154.232,1153.779,143.694,1140.829,143.694z"/>
		</g>
		<g>
			<path d="M1189.345,169.139c-1.081,0-1.957-0.875-1.957-1.957c0-25.67-20.885-46.555-46.559-46.555
				c-1.082,0-1.957-0.875-1.957-1.957c0-1.082,0.875-1.957,1.957-1.957c27.83,0,50.473,22.64,50.473,50.469
				C1191.302,168.263,1190.427,169.139,1189.345,169.139z"/>
		</g>
		<g>
			<path d="M1211.293,169.139c-1.086,0-1.957-0.875-1.957-1.957c0-37.771-30.731-68.502-68.507-68.502
				c-1.082,0-1.957-0.875-1.957-1.957s0.875-1.957,1.957-1.957c39.931,0,72.42,32.485,72.42,72.417
				C1213.249,168.263,1212.37,169.139,1211.293,169.139z"/>
		</g>
	</g>
	<g>
		<g>
			<line fill="#FFFFFF" x1="241.509" y1="562.483" x2="318.486" y2="562.483"/>
			<path d="M318.486,564.44h-76.977c-1.078,0-1.957-0.875-1.957-1.957s0.879-1.957,1.957-1.957h76.977
				c1.082,0,1.957,0.875,1.957,1.957S319.567,564.44,318.486,564.44z"/>
		</g>
		<g>
			<g>
				<rect x="112.714" y="452.624" fill="#FFFFFF" width="70.915" height="27.883"/>
				<path d="M183.629,482.464h-70.915c-1.078,0-1.957-0.875-1.957-1.957v-27.883c0-1.082,0.879-1.957,1.957-1.957h70.915
					c1.082,0,1.957,0.875,1.957,1.957v27.883C185.586,481.589,184.71,482.464,183.629,482.464z M114.671,478.55h67v-23.969h-67
					V478.55z"/>
			</g>
			<g>
				<polygon fill="#FFFFFF" points="183.629,398.531 305.456,398.531 305.456,342.317 112.714,342.317 112.714,452.624 
					183.629,452.624 				"/>
				<path d="M183.629,454.581h-70.915c-1.078,0-1.957-0.875-1.957-1.957V342.317c0-1.082,0.879-1.957,1.957-1.957h192.741
					c1.082,0,1.957,0.875,1.957,1.957v56.214c0,1.082-0.875,1.957-1.957,1.957h-119.87v52.136
					C185.586,453.706,184.71,454.581,183.629,454.581z M114.671,450.667h67v-52.136c0-1.082,0.875-1.957,1.957-1.957h119.87v-52.3
					H114.671V450.667z"/>
			</g>
			<g>
				<polygon fill="#FFFFFF" points="183.629,536.722 254.543,536.722 305.456,536.722 376.366,536.722 376.366,508.842 
					183.629,508.842 				"/>
				<path d="M376.366,538.679H183.629c-1.082,0-1.957-0.876-1.957-1.957v-27.88c0-1.082,0.875-1.957,1.957-1.957h192.737
					c1.085,0,1.957,0.875,1.957,1.957v27.88C378.323,537.803,377.452,538.679,376.366,538.679z M185.586,534.765h188.823v-23.966
					H185.586V534.765z"/>
			</g>
			<g>
				<polygon fill="#FFFFFF" points="305.456,398.531 183.629,398.531 183.629,452.624 183.629,480.507 183.629,506.266 
					183.629,508.842 376.366,508.842 376.366,398.531 				"/>
				<path d="M376.366,510.799H183.629c-1.082,0-1.957-0.875-1.957-1.957V398.531c0-1.082,0.875-1.957,1.957-1.957h192.737
					c1.085,0,1.957,0.875,1.957,1.957v110.311C378.323,509.924,377.452,510.799,376.366,510.799z M185.586,506.885h188.823V400.488
					H185.586V506.885z"/>
			</g>
			<g>
				<rect x="254.543" y="536.722" fill="#FFFFFF" width="50.912" height="25.762"/>
				<path d="M305.456,564.44h-50.912c-1.082,0-1.957-0.875-1.957-1.957v-25.762c0-1.082,0.875-1.957,1.957-1.957h50.912
					c1.082,0,1.957,0.875,1.957,1.957v25.762C307.413,563.565,306.538,564.44,305.456,564.44z M256.5,560.526h46.999v-21.848H256.5
					V560.526z"/>
			</g>
			<g>
				<polyline fill="#FFFFFF" points="221.813,452.624 305.456,452.624 305.456,398.531 				"/>
				<path d="M305.456,454.581h-83.642c-1.082,0-1.957-0.875-1.957-1.957s0.875-1.957,1.957-1.957h81.685v-52.136
					c0-1.082,0.875-1.957,1.957-1.957c1.082,0,1.957,0.875,1.957,1.957v54.093C307.413,453.706,306.538,454.581,305.456,454.581z"/>
			</g>
			<g>
				<path d="M236.384,469.155c-0.501,0-1.001-0.191-1.384-0.573l-14.57-14.574c-0.367-0.367-0.573-0.864-0.573-1.384
					c0-0.52,0.206-1.017,0.573-1.384L235,436.674c0.765-0.765,2.003-0.765,2.768,0c0.764,0.765,0.764,2.003,0,2.767l-13.187,13.183
					l13.187,13.19c0.764,0.765,0.764,2.003,0,2.768C237.385,468.964,236.884,469.155,236.384,469.155z"/>
			</g>
			<g>
				<path d="M256.347,415.059c-0.5,0-1.001-0.191-1.383-0.574c-0.765-0.764-0.765-2.002,0-2.767l13.187-13.187l-13.187-13.187
					c-0.765-0.765-0.765-2.003,0-2.768c0.764-0.764,2.002-0.764,2.767,0l14.57,14.571c0.367,0.367,0.574,0.864,0.574,1.383
					c0,0.52-0.207,1.017-0.574,1.384l-14.57,14.57C257.349,414.868,256.848,415.059,256.347,415.059z"/>
			</g>
			<g>
				<rect x="272.072" y="391.208" fill="#FFFFFF" width="31.434" height="22.429"/>
			</g>
			<g>
				<path fill="#FFFFFF" d="M355.558,480.507c0,4.376-3.551,7.931-7.927,7.931c-4.384,0-7.935-3.555-7.935-7.931
					s3.551-7.931,7.935-7.931C352.007,472.576,355.558,476.131,355.558,480.507z"/>
				<path d="M347.63,490.396c-5.454,0-9.892-4.438-9.892-9.888s4.438-9.888,9.892-9.888c5.451,0,9.884,4.438,9.884,9.888
					S353.081,490.396,347.63,490.396z M347.63,474.533c-3.294,0-5.978,2.68-5.978,5.974c0,3.295,2.684,5.974,5.978,5.974
					c3.291,0,5.97-2.679,5.97-5.974C353.601,477.213,350.921,474.533,347.63,474.533z"/>
			</g>
			<g>
				<path fill="#FFFFFF" d="M317.526,480.507c0,4.376-3.547,7.931-7.927,7.931c-4.384,0-7.935-3.555-7.935-7.931
					s3.551-7.931,7.935-7.931C313.979,472.576,317.526,476.131,317.526,480.507z"/>
				<path d="M309.599,490.396c-5.455,0-9.892-4.438-9.892-9.888s4.438-9.888,9.892-9.888c5.451,0,9.884,4.438,9.884,9.888
					S315.05,490.396,309.599,490.396z M309.599,474.533c-3.295,0-5.978,2.68-5.978,5.974c0,3.295,2.683,5.974,5.978,5.974
					c3.291,0,5.97-2.679,5.97-5.974C315.569,477.213,312.89,474.533,309.599,474.533z"/>
			</g>
			<g>
				<path fill="#FFFFFF" d="M279.495,480.507c0,4.376-3.551,7.931-7.932,7.931c-4.38,0-7.931-3.555-7.931-7.931
					s3.551-7.931,7.931-7.931C275.944,472.576,279.495,476.131,279.495,480.507z"/>
				<path d="M271.563,490.396c-5.45,0-9.888-4.438-9.888-9.888s4.438-9.888,9.888-9.888c5.455,0,9.889,4.438,9.889,9.888
					S277.018,490.396,271.563,490.396z M271.563,474.533c-3.291,0-5.974,2.68-5.974,5.974c0,3.295,2.684,5.974,5.974,5.974
					c3.295,0,5.975-2.679,5.975-5.974C277.538,477.213,274.858,474.533,271.563,474.533z"/>
			</g>
		</g>
	</g>
	<g>
		<g>
			<path fill="#FFFFFF" d="M201.356,674.605l15.377-13.833l-31.075-34.541l-51.234,46.092
				c-11.734,10.558-12.693,28.641-2.133,40.371l23.905,26.572c10.564,11.738,28.64,12.697,40.378,2.137l51.23-46.097l-31.071-34.534
				L201.356,674.605z"/>
			<path d="M177.467,750.695c-8.657,0-16.937-3.688-22.723-10.121l-23.904-26.572c-5.458-6.059-8.226-13.887-7.797-22.036
				c0.432-8.148,4.009-15.641,10.075-21.099l51.233-46.093c0.386-0.348,0.887-0.554,1.415-0.497
				c0.516,0.027,1.001,0.261,1.349,0.646l31.067,34.534c0.004,0.004,0.004,0.004,0.004,0.008L249.261,694
				c0.719,0.803,0.658,2.037-0.145,2.763l-51.234,46.097C192.267,747.912,185.017,750.695,177.467,750.695z M185.513,628.994
				l-49.781,44.786c-5.287,4.755-8.405,11.287-8.78,18.393c-0.378,7.105,2.037,13.928,6.796,19.21l23.9,26.576
				c5.045,5.604,12.27,8.822,19.818,8.822c6.578,0,12.9-2.428,17.8-6.834l49.773-44.786l-28.453-31.625l-13.921,12.525
				c-0.81,0.719-2.045,0.657-2.767-0.148c-0.336-0.371-0.501-0.841-0.501-1.304c0-0.539,0.218-1.07,0.646-1.46l13.921-12.521
				L185.513,628.994z"/>
		</g>
		<g>
			<path fill="#FFFFFF" d="M258.465,623.23l-11.952-13.286c-10.565-11.738-28.64-12.689-40.375-2.133l-20.479,18.42l31.075,34.541
				L258.465,623.23z"/>
			<path d="M216.733,662.729c-0.038,0-0.069,0-0.107-0.004c-0.516-0.026-1.001-0.26-1.349-0.646l-31.071-34.542
				c-0.726-0.803-0.657-2.041,0.145-2.764l20.476-18.419c5.619-5.053,12.87-7.836,20.422-7.836c8.653,0,16.933,3.688,22.719,10.113
				l11.949,13.29c0.726,0.803,0.657,2.042-0.146,2.764l-41.731,37.542C217.681,662.55,217.215,662.729,216.733,662.729z
				 M188.426,626.376l28.453,31.633l38.819-34.924l-10.642-11.833c-5.045-5.604-12.262-8.818-19.807-8.818
				c-6.582,0-12.904,2.427-17.804,6.834L188.426,626.376z"/>
		</g>
		<g>
			<path fill="#FFFFFF" d="M270.413,636.513l-11.948-13.282l-41.731,37.542l31.071,34.534l20.476-18.419
				C280.019,666.33,280.974,648.255,270.413,636.513z"/>
			<path d="M247.805,697.264c-0.535,0-1.066-0.218-1.457-0.649l-31.071-34.534c-0.348-0.383-0.528-0.891-0.501-1.41
				c0.031-0.521,0.26-1.006,0.646-1.354l41.731-37.542c0.803-0.723,2.037-0.661,2.764,0.148l11.952,13.283
				c11.264,12.525,10.24,31.873-2.282,43.138l-20.472,18.419C248.741,697.1,248.271,697.264,247.805,697.264z M219.493,660.918
				l28.457,31.625l19.023-17.112c10.917-9.815,11.807-26.69,1.988-37.61l-10.641-11.826L219.493,660.918z"/>
		</g>
	</g>
	<g>
		<path fill="#FFFFFF" d="M258.465,623.23c0,0,31.174-44.721,89.162-20.514c0,0,19,9.123,30.219,23.515"/>
		<path d="M377.849,628.188c-0.584,0-1.162-0.26-1.548-0.753c-10.794-13.848-29.336-22.864-29.523-22.956
			c-55.702-23.243-85.47,18.103-86.712,19.872c-0.619,0.887-1.838,1.097-2.725,0.485c-0.883-0.619-1.101-1.839-0.482-2.726
			c0.321-0.462,32.761-45.733,91.521-21.198c0.887,0.421,19.639,9.529,31.01,24.115c0.661,0.852,0.512,2.083-0.34,2.748
			C378.69,628.055,378.27,628.188,377.849,628.188z"/>
	</g>
	<g>
		<g>
			<polygon fill="#FFFFFF" points="812.555,896.098 1076.55,896.098 1076.55,772.123 1032.312,772.123 999.489,739.305 
				966.676,772.123 812.555,772.123 			"/>
			<path d="M1076.55,898.055H812.555c-1.082,0-1.957-0.875-1.957-1.957V772.123c0-1.082,0.875-1.957,1.957-1.957h153.311
				l32.241-32.245c0.733-0.733,2.033-0.733,2.767,0l32.249,32.245h43.428c1.082,0,1.957,0.875,1.957,1.957v123.975
				C1078.507,897.18,1077.632,898.055,1076.55,898.055z M814.512,894.141h260.082V774.08h-42.282c-0.52,0-1.017-0.207-1.384-0.573
				l-31.438-31.435l-31.43,31.435c-0.367,0.366-0.864,0.573-1.384,0.573H814.512V894.141z"/>
		</g>
		<g>
			<line fill="#FFFFFF" x1="1052.478" y1="861.575" x2="836.619" y2="861.575"/>
			<path d="M1052.478,863.532H836.619c-1.081,0-1.957-0.876-1.957-1.957c0-1.082,0.876-1.957,1.957-1.957h215.858
				c1.086,0,1.957,0.875,1.957,1.957C1054.435,862.656,1053.563,863.532,1052.478,863.532z"/>
		</g>
		<g>
			<line fill="#FFFFFF" x1="1052.478" y1="831.433" x2="836.619" y2="831.433"/>
			<path d="M1052.478,833.39H836.619c-1.081,0-1.957-0.875-1.957-1.957s0.876-1.957,1.957-1.957h215.858
				c1.086,0,1.957,0.875,1.957,1.957S1053.563,833.39,1052.478,833.39z"/>
		</g>
		<g>
			<line fill="#FFFFFF" x1="1052.478" y1="801.286" x2="836.619" y2="801.286"/>
			<path d="M1052.478,803.243H836.619c-1.081,0-1.957-0.875-1.957-1.957c0-1.081,0.876-1.957,1.957-1.957h215.858
				c1.086,0,1.957,0.876,1.957,1.957C1054.435,802.368,1053.563,803.243,1052.478,803.243z"/>
		</g>
	</g>
	<g>
		<g>
			<polygon fill="#FFFFFF" points="539.072,773.418 539.072,897.08 632.362,835.247 			"/>
			<path d="M539.072,899.037c-0.313,0-0.635-0.076-0.925-0.233c-0.634-0.34-1.032-1.001-1.032-1.724V773.418
				c0-0.722,0.397-1.383,1.032-1.724c0.635-0.344,1.407-0.302,2.011,0.092l93.286,61.829c0.547,0.363,0.875,0.975,0.875,1.632
				s-0.329,1.27-0.875,1.632l-93.286,61.833C539.829,898.926,539.454,899.037,539.072,899.037z M541.029,777.064v116.369
				l87.79-58.187L541.029,777.064z"/>
		</g>
		<g>
			<polygon fill="#FFFFFF" points="672.144,835.247 765.434,897.08 765.434,773.418 			"/>
			<path d="M765.434,899.037c-0.374,0-0.753-0.111-1.078-0.325l-93.293-61.833c-0.547-0.362-0.875-0.975-0.875-1.632
				s0.329-1.269,0.875-1.632l93.293-61.829c0.601-0.394,1.373-0.436,2.003-0.092c0.639,0.341,1.032,1.002,1.032,1.724V897.08
				c0,0.723-0.394,1.384-1.032,1.724C766.072,898.961,765.755,899.037,765.434,899.037z M675.687,835.247l87.79,58.187V777.064
				L675.687,835.247z"/>
		</g>
		<g>
			<polygon fill="#FFFFFF" points="539.072,773.418 632.362,835.247 652.253,848.431 672.144,835.247 765.434,773.418 			"/>
			<path d="M652.253,850.388c-0.378,0-0.753-0.107-1.082-0.325l-113.177-75.012c-0.719-0.478-1.043-1.368-0.795-2.198
				c0.252-0.825,1.009-1.391,1.873-1.391h226.361c0.864,0,1.629,0.565,1.873,1.391c0.252,0.83-0.068,1.721-0.787,2.198
				l-113.185,75.012C653.006,850.28,652.631,850.388,652.253,850.388z M545.57,775.375l106.683,70.708l106.687-70.708H545.57z"/>
		</g>
		<g>
			<polygon fill="#FFFFFF" points="672.144,835.247 652.253,848.431 632.362,835.247 539.072,897.08 539.072,933.28 592.423,897.08 
				765.434,897.08 			"/>
			<path d="M539.072,935.237c-0.313,0-0.627-0.076-0.914-0.229c-0.639-0.336-1.043-1.001-1.043-1.728v-36.2
				c0-0.657,0.329-1.27,0.879-1.632l93.286-61.833c0.657-0.436,1.506-0.436,2.163,0l18.81,12.468l18.81-12.468
				c0.657-0.436,1.506-0.436,2.163,0l93.294,61.833c0.719,0.478,1.039,1.368,0.787,2.197c-0.244,0.826-1.009,1.392-1.873,1.392
				h-172.41l-52.851,35.864C539.844,935.123,539.458,935.237,539.072,935.237z M541.029,898.131v31.457l50.293-34.129
				c0.325-0.218,0.707-0.336,1.101-0.336h166.517l-86.795-57.529l-18.81,12.469c-0.657,0.436-1.506,0.436-2.163,0l-18.81-12.469
				L541.029,898.131z"/>
		</g>
	</g>
	<g>
		<g>
			<path fill="#FFFFFF" d="M344.229,773.418v125.723h28.675l10.419,11.661l10.423,11.666l10.419-11.666l10.423-11.661h82.186
				V773.418H344.229z M479.758,853.082v21.806H360.519v-15.419v-69.382h119.239V853.082z"/>
			<path d="M393.746,924.425c-0.558,0-1.089-0.237-1.46-0.654l-20.254-22.673h-27.803c-1.085,0-1.957-0.876-1.957-1.957V773.418
				c0-1.081,0.872-1.956,1.957-1.956h152.546c1.085,0,1.957,0.875,1.957,1.956v125.723c0,1.081-0.872,1.957-1.957,1.957H415.46
				l-20.254,22.673C394.835,924.188,394.304,924.425,393.746,924.425z M346.186,897.184h26.718c0.558,0,1.089,0.236,1.46,0.653
				l19.383,21.691l19.383-21.691c0.371-0.417,0.902-0.653,1.46-0.653h80.229V775.375H346.186V897.184z M479.758,876.845H360.519
				c-1.085,0-1.957-0.875-1.957-1.957v-84.801c0-1.081,0.872-1.957,1.957-1.957h119.239c1.085,0,1.957,0.876,1.957,1.957v84.801
				C481.715,875.97,480.844,876.845,479.758,876.845z M362.476,872.931h115.325v-80.887H362.476V872.931z"/>
		</g>
		<g>
			<path fill="#FFFFFF" d="M360.519,859.469l27.26-27.264l20.273,20.273l35.555-35.548l36.151,36.151v-62.995H360.519V859.469z
				 M406.623,801.478c5.772,0,10.45,4.679,10.45,10.454c0,5.771-4.678,10.45-10.45,10.45c-5.771,0-10.458-4.679-10.458-10.45
				C396.166,806.156,400.852,801.478,406.623,801.478z"/>
			<path d="M360.519,861.426c-0.252,0-0.508-0.05-0.749-0.148c-0.734-0.303-1.208-1.018-1.208-1.809v-69.382
				c0-1.081,0.872-1.957,1.957-1.957h119.239c1.085,0,1.957,0.876,1.957,1.957v62.995c0,0.791-0.474,1.506-1.208,1.808
				c-0.726,0.306-1.567,0.138-2.133-0.424l-34.767-34.768l-34.171,34.163c-0.765,0.765-2.003,0.765-2.768,0l-18.89-18.89
				l-25.876,25.881C361.528,861.228,361.023,861.426,360.519,861.426z M362.476,792.044v62.7l23.92-23.923
				c0.764-0.765,2.002-0.765,2.767,0l18.89,18.89l34.171-34.164c0.765-0.764,2.003-0.764,2.768,0l32.81,32.811v-56.313H362.476z
				 M406.623,824.339c-6.842,0-12.415-5.565-12.415-12.407s5.573-12.411,12.415-12.411s12.407,5.569,12.407,12.411
				S413.465,824.339,406.623,824.339z M406.623,803.435c-4.686,0-8.5,3.811-8.5,8.497c0,4.683,3.814,8.493,8.5,8.493
				s8.493-3.811,8.493-8.493C415.116,807.245,411.309,803.435,406.623,803.435z"/>
		</g>
		<g>
			<polygon fill="#FFFFFF" points="408.053,852.479 387.779,832.205 360.519,859.469 360.519,874.888 479.758,874.888 
				479.758,853.082 443.607,816.931 			"/>
			<path d="M479.758,876.845H360.519c-1.085,0-1.957-0.875-1.957-1.957v-15.419c0-0.52,0.207-1.017,0.573-1.384l27.261-27.264
				c0.764-0.765,2.002-0.765,2.767,0l18.89,18.89l34.171-34.164c0.765-0.764,2.003-0.764,2.768,0l36.151,36.151
				c0.367,0.367,0.573,0.864,0.573,1.384v21.806C481.715,875.97,480.844,876.845,479.758,876.845z M362.476,872.931h115.325v-19.038
				l-34.194-34.194l-34.171,34.163c-0.765,0.765-2.003,0.765-2.768,0l-18.89-18.89l-25.303,25.308V872.931z"/>
		</g>
		<g>
			<path fill="#FFFFFF" d="M406.623,822.382c5.772,0,10.45-4.679,10.45-10.45c0-5.775-4.678-10.454-10.45-10.454
				c-5.771,0-10.458,4.679-10.458,10.454C396.166,817.703,400.852,822.382,406.623,822.382z"/>
			<path d="M406.623,824.339c-6.842,0-12.415-5.565-12.415-12.407s5.573-12.411,12.415-12.411s12.407,5.569,12.407,12.411
				S413.465,824.339,406.623,824.339z M406.623,803.435c-4.686,0-8.5,3.811-8.5,8.497c0,4.683,3.814,8.493,8.5,8.493
				s8.493-3.811,8.493-8.493C415.116,807.245,411.309,803.435,406.623,803.435z"/>
		</g>
	</g>
	<g>
		<path d="M983.807,107.115h-62.501c-1.078,0-1.957-0.875-1.957-1.957c0-1.082,0.879-1.957,1.957-1.957h62.501
			c1.086,0,1.957,0.875,1.957,1.957C985.764,106.24,984.893,107.115,983.807,107.115z"/>
	</g>
	<g>
		<path d="M497.753,107.115h-62.501c-1.082,0-1.957-0.875-1.957-1.957c0-1.082,0.875-1.957,1.957-1.957h62.501
			c1.082,0,1.957,0.875,1.957,1.957C499.71,106.24,498.835,107.115,497.753,107.115z"/>
	</g>
</g>
</svg>
